<svg xmlns="http://www.w3.org/2000/svg" xmlns:xlink="http://www.w3.org/1999/xlink" aria-hidden="true" role="img" class="iconify iconify--logos" width="31.88" height="32" preserveAspectRatio="xMidYMid meet" viewBox="0 0 256 257"><defs><linearGradient id="IconifyId1813088fe1fbc01fb466" x1="-.828" x2="1.138" y1="-.828" y2="1.138"><stop offset="0" stop-color="#41D1FF"/><stop offset="1" stop-color="#BD34FE"/></linearGradient><linearGradient id="IconifyId1813088fe1fbc01fb467" x1="-.828" x2="1.138" y1="-.828" y2="1.138"><stop offset="0" stop-color="#FFEA83"/><stop offset=".083" stop-color="#FFDD35"/><stop offset="1" stop-color="#FFA800"/></linearGradient></defs><path fill="url(#IconifyId1813088fe1fbc01fb466)" d="M255.153 37.342c-2.901-11.87-12.43-21.399-24.302-24.301C204.022 5.15 135.524 0 128 0S51.978 5.15 25.15 13.041C13.278 15.942 3.75 25.471.848 37.342C-1.942 48.815 0 128.5 0 128.5s-1.942 79.685.848 91.158c2.901 11.87 12.43 21.399 24.302 24.301C51.978 251.85 120.476 257 128 257s76.022-5.15 102.85-13.041c11.872-2.902 21.399-12.43 24.301-24.301c2.79-11.473.849-91.158.849-91.158s2.79-79.685-.847-91.158Z"/><path fill="url(#IconifyId1813088fe1fbc01fb467)" d="M185.463 83.221c-10.39-3.96-21.68-6.33-32.38-8.01c-2.31-.36-4.62-.6-6.93-.84c-2.61-.27-5.22-.42-7.83-.51c-1.32-.04-2.64-.07-3.96-.07c-2.64 0-5.28.09-7.83.21c-4.53.21-9.06.57-13.59 1.08c-10.53 1.23-21.06 3.36-31.32 6.33c-10.26 2.97-20.25 6.87-29.64 11.7c-9.39 4.83-18.18 10.59-26.1 17.22c-7.92 6.63-14.94 14.1-20.88 22.41c-5.94 8.31-10.62 17.46-13.95 27.39c-3.33 9.93-5.22 20.58-5.61 31.74c-.39 11.16.69 22.89 3.33 34.38c2.64 11.49 6.84 22.71 12.6 33.39c5.76 10.68 13.05 20.79 21.87 29.97c8.82 9.18 19.08 17.43 30.69 24.48c11.61 7.05 24.57 12.84 38.43 17.13s28.56 6.99 43.56 7.92c15 .93 30.15.12 44.97-2.49c14.82-2.61 29.01-6.99 42.21-13.11c13.2-6.12 25.29-13.95 35.91-23.49c10.62-9.54 19.62-20.73 26.73-33.54c7.11-12.81 12.27-27.18 15.18-42.63c2.91-15.45 3.45-31.8 1.59-47.82c-1.86-16.02-6.12-31.56-12.81-46.2c-6.69-14.64-15.78-28.29-27.3-40.68c-11.52-12.39-25.41-23.43-41.4-32.82c-6.42-3.78-13.05-7.2-19.89-10.26Z"/>
</svg>